<mxfile host="65bd71144e">
    <diagram id="L3ZA_uq9OZCvQq6X4Tz9" name="Page-1">
        <mxGraphModel dx="371" dy="375" grid="1" gridSize="10" guides="1" tooltips="1" connect="1" arrows="1" fold="1" page="1" pageScale="1" pageWidth="850" pageHeight="1100" math="0" shadow="0">
            <root>
                <mxCell id="0"/>
                <mxCell id="1" parent="0"/>
                <mxCell id="15" value="" style="edgeStyle=none;html=1;exitX=0.5;exitY=1;exitDx=0;exitDy=0;entryX=0.5;entryY=0;entryDx=0;entryDy=0;" edge="1" parent="1" source="11" target="2">
                    <mxGeometry relative="1" as="geometry">
                        <mxPoint x="223" y="120" as="sourcePoint"/>
                        <mxPoint x="223" y="160" as="targetPoint"/>
                    </mxGeometry>
                </mxCell>
                <mxCell id="2" value="app.js&amp;nbsp;" style="whiteSpace=wrap;html=1;aspect=fixed;" vertex="1" parent="1">
                    <mxGeometry x="202.75" y="170" width="40" height="40" as="geometry"/>
                </mxCell>
                <mxCell id="3" value="Vessel management system" style="text;html=1;align=center;verticalAlign=middle;resizable=0;points=[];autosize=1;strokeColor=none;" vertex="1" parent="1">
                    <mxGeometry x="140" y="10" width="170" height="20" as="geometry"/>
                </mxCell>
                <mxCell id="4" value="App entrance point" style="text;strokeColor=none;fillColor=none;align=left;verticalAlign=top;spacingLeft=4;spacingRight=4;overflow=hidden;rotatable=0;points=[[0,0.5],[1,0.5]];portConstraint=eastwest;" vertex="1" parent="1">
                    <mxGeometry x="167.5" y="60" width="115" height="26" as="geometry"/>
                </mxCell>
                <mxCell id="11" value="package.json" style="rounded=1;whiteSpace=wrap;html=1;" vertex="1" parent="1">
                    <mxGeometry x="181.5" y="86" width="82.5" height="24" as="geometry"/>
                </mxCell>
                <mxCell id="17" value="" style="edgeStyle=none;html=1;" edge="1" parent="1">
                    <mxGeometry relative="1" as="geometry">
                        <mxPoint x="203" y="188" as="sourcePoint"/>
                        <mxPoint x="130" y="188" as="targetPoint"/>
                    </mxGeometry>
                </mxCell>
                <mxCell id="18" value="routes/user" style="rounded=1;whiteSpace=wrap;html=1;" vertex="1" parent="1">
                    <mxGeometry x="20" y="178" width="100" height="20" as="geometry"/>
                </mxCell>
                <mxCell id="19" value="" style="edgeStyle=none;html=1;" edge="1" parent="1">
                    <mxGeometry relative="1" as="geometry">
                        <mxPoint x="243.75" y="189" as="sourcePoint"/>
                        <mxPoint x="320" y="189" as="targetPoint"/>
                    </mxGeometry>
                </mxCell>
                <mxCell id="20" value="routes/auth" style="rounded=1;whiteSpace=wrap;html=1;" vertex="1" parent="1">
                    <mxGeometry x="325" y="180" width="100" height="20" as="geometry"/>
                </mxCell>
            </root>
        </mxGraphModel>
    </diagram>
</mxfile>